<?xml version="1.0" encoding="utf-8"?>
<!-- Generator: Adobe Illustrator 16.0.0, SVG Export Plug-In . SVG Version: 6.00 Build 0)  -->
<!DOCTYPE svg PUBLIC "-//W3C//DTD SVG 1.1//EN" "http://www.w3.org/Graphics/SVG/1.1/DTD/svg11.dtd">
<svg version="1.1" id="Layer_1" xmlns="http://www.w3.org/2000/svg" xmlns:xlink="http://www.w3.org/1999/xlink" x="0px" y="0px"
	 width="30px" height="30px" viewBox="0 0 30 30" enable-background="new 0 0 30 30" xml:space="preserve">
<path fill="#A435F0" d="M22.747,8.914l-7.748-4.471L7.253,8.914V4.442L15-0.028l7.748,4.471L22.747,8.914L22.747,8.914z"/>
<path d="M7.253,12.668h4.059v9.856c0,2.546,1.902,3.788,3.688,3.788c1.802,0,3.69-1.274,3.69-3.822v-9.822h4.058v10.091
	c0,2.345-0.737,4.154-2.213,5.396C19.059,29.396,17.215,30,14.966,30c-2.247,0-4.092-0.603-5.533-1.845
	c-1.442-1.239-2.18-2.981-2.18-5.296V12.668z"/>
</svg>
